<svg width="65" height="65" viewBox="0 0 65 65" fill="none" xmlns="http://www.w3.org/2000/svg">
<path fill-rule="evenodd" clip-rule="evenodd" d="M31.5441 0.934143C27.6953 1.19504 25.3596 1.6346 22.3245 2.6693C8.42271 7.40873 -0.476353 21.3863 1.07335 36.0483C1.17109 36.9737 1.19855 37.169 1.39984 38.3746C4.4566 56.6783 22.4156 68.3758 40.6375 63.9317C64.1548 58.1962 72.8382 29.3238 56.5075 11.1634C50.4683 4.44744 40.4254 0.332225 31.5441 0.934143ZM35.9381 7.19581C46.6061 8.48995 55.2911 16.0496 57.9503 26.3556C58.5312 28.6075 58.4748 28.6495 54.8712 28.6495C51.6363 28.6495 51.5882 28.6332 51.1828 27.4011C46.6127 13.5118 29.4781 9.46084 19.3259 19.8695C13.1713 26.1798 12.226 35.9763 17.0672 43.2751C25.952 56.6701 45.8917 54.0077 51.0985 38.7311C51.7452 36.8334 51.6589 36.8729 55.1031 36.9014C58.3443 36.9283 58.4729 37.0297 57.9128 39.1177C53.6475 55.0186 35.9648 62.9171 21.3667 55.4419C8.88489 49.0505 3.84354 33.9645 9.99454 21.4123C14.0152 13.2074 22.0697 7.82438 31.4471 7.07497C32.1836 7.01617 35.1049 7.09468 35.9381 7.19581ZM34.6457 18.631C37.3662 18.9988 39.7448 20.0196 41.8507 21.7228C44.1446 23.5781 46.5063 27.1997 46.04 28.147C45.7953 28.644 45.7643 28.6495 43.1754 28.6495H40.8814L40.5236 28.4817C40.2522 28.3544 40.0335 28.1668 39.6196 27.7063C36.9533 24.74 33.6484 23.7003 30.3244 24.782C21.1447 27.7688 23.2571 41.2671 32.9011 41.2475C35.6559 41.242 37.6356 40.2944 39.523 38.0781C40.0792 37.425 40.2586 37.2583 40.5701 37.1053L40.946 36.9207H43.1754C46.4496 36.9207 46.6441 37.1182 45.4939 39.275C41.7907 46.2189 33.3755 48.9057 26.4132 45.3671C18.9015 41.5494 16.3381 32.0404 20.9312 25.0309C23.938 20.4421 29.3525 17.9155 34.6457 18.631Z" fill="black" fill-opacity="0.40"/>
</svg>
