<?xml version="1.0" standalone="no"?><!DOCTYPE svg PUBLIC "-//W3C//DTD SVG 1.1//EN" "http://www.w3.org/Graphics/SVG/1.1/DTD/svg11.dtd"><svg t="1670728822780" class="icon" viewBox="0 0 1024 1024" version="1.1" xmlns="http://www.w3.org/2000/svg" p-id="4434" xmlns:xlink="http://www.w3.org/1999/xlink" width="200" height="200"><path d="M512 0v1024C794.770286 1024 1024 794.770286 1024 512S794.770286 0 512 0z" fill="#8B9EA4" p-id="4435"></path><path d="M962.189135 512C962.189135 229.229714 760.632145 0 512 0 229.229714 0 0 229.229714 0 512S229.229714 1024 512 1024C760.632145 1024 962.189135 794.770286 962.189135 512z" fill="#A3BBC0" p-id="4436"></path><path d="M512 512m-388.37827 0a388.37827 388.37827 0 1 0 776.75654 0 388.37827 388.37827 0 1 0-776.75654 0Z" fill="#BDDBE0" p-id="4437"></path><path d="M512 185.432596C331.642076 185.432596 185.432596 331.642076 185.432596 512S331.642076 838.567404 512 838.567404 838.567404 692.357924 838.567404 512L512 185.432596z" fill="#41494E" p-id="4438"></path><path d="M512 185.432596v326.567404H838.567404C838.567404 331.642076 692.357924 185.432596 512 185.432596z" fill="#5DC75D" p-id="4439"></path><path d="M512 792.209256c-154.506559 0-280.209256-125.700636-280.209256-280.209256s125.702696-280.209256 280.209256-280.209256 280.209256 125.700636 280.209256 280.209256-125.702696 280.209256-280.209256 280.209256z m0-529.513079c-137.467364 0-249.303823 111.836459-249.303823 249.303823s111.836459 249.303823 249.303823 249.303823 249.303823-111.836459 249.303823-249.303823-111.836459-249.303823-249.303823-249.303823z" fill="#0CBF4E" p-id="4440"></path><path d="M512 668.587525c-86.341537 0-156.587525-70.243928-156.587525-156.587525s70.245988-156.587525 156.587525-156.587525 156.587525 70.243928 156.587525 156.587525-70.245988 156.587525-156.587525 156.587525z m0-282.269618c-69.302342 0-125.682093 56.379751-125.682093 125.682093s56.379751 125.682093 125.682093 125.682093 125.682093-56.379751 125.682093-125.682093-56.379751-125.682093-125.682093-125.682093z" fill="#0CBF4E" p-id="4441"></path><path d="M247.243461 496.547284h529.513078v30.905432H247.243461z" fill="#0CBF4E" p-id="4442"></path><path d="M496.547284 247.243461h30.905432v529.513078h-30.905432z" fill="#0CBF4E" p-id="4443"></path></svg>